<svg xmlns="http://www.w3.org/2000/svg" width="820" height="600" viewBox="0 0 820 600">
  <style>
    text{font-family:'Segoe UI',Arial,sans-serif;fill:#212529}
    .brand{font-size:18px;font-weight:700;fill:#fff}
    .title{font-size:16px;font-weight:600;fill:#fff}
    .hu{font-size:12px;font-weight:700;fill:#1c7ed6}
    .cardtitle{font-size:20px;font-weight:700;fill:#212529}
    .label{font-size:13px;fill:#495057}
    .ph{font-size:13px;fill:#adb5bd}
    .btntext{font-size:14px;font-weight:700;fill:#fff}
    .th{font-size:12px;font-weight:700;fill:#495057}
    .td{font-size:13px;fill:#212529}
    .muted{font-size:12px;fill:#868e96}
  </style>
  <rect width="820" height="600" fill="#f1f3f5"/>
  <rect width="820" height="56" fill="#1c7ed6"/>
  <text x="24" y="35" class="brand">CrediFlow</text>
  <text x="410" y="35" text-anchor="middle" class="title">Consulta del historial de auditoría</text>
  <rect x="708" y="16" width="88" height="24" rx="12" fill="#fff"/>
  <text x="752" y="32" text-anchor="middle" class="hu">HU09·10</text>

  <rect x="24" y="80" width="772" height="500" rx="10" fill="#fff" stroke="#ced4da"/>
  <text x="48" y="116" class="cardtitle">Historial de auditoría</text>
  <rect x="612" y="98" width="160" height="28" rx="14" fill="#fff9db" stroke="#f08c00"/>
  <text x="692" y="117" text-anchor="middle" font-size="12" font-weight="700" fill="#92681a">🔒 Registro inmutable</text>

  <text x="48" y="168" class="label">Cliente</text>
  <rect x="48" y="176" width="240" height="34" rx="6" fill="#f8f9fa" stroke="#ced4da"/>
  <text x="60" y="198" class="ph">Buscar por cliente</text>
  <text x="308" y="168" class="label">Desde</text>
  <rect x="308" y="176" width="130" height="34" rx="6" fill="#f8f9fa" stroke="#ced4da"/>
  <text x="320" y="198" class="ph">dd/mm/aaaa</text>
  <text x="452" y="168" class="label">Hasta</text>
  <rect x="452" y="176" width="130" height="34" rx="6" fill="#f8f9fa" stroke="#ced4da"/>
  <text x="464" y="198" class="ph">dd/mm/aaaa</text>
  <rect x="600" y="176" width="120" height="34" rx="6" fill="#1c7ed6"/>
  <text x="660" y="198" text-anchor="middle" class="btntext">Buscar</text>

  <rect x="48" y="238" width="724" height="30" fill="#f1f3f5"/>
  <text x="56" y="258" class="th">Fecha y hora</text>
  <text x="210" y="258" class="th">Solicitud</text>
  <text x="330" y="258" class="th">Acción</text>
  <text x="470" y="258" class="th">Usuario</text>
  <text x="620" y="258" class="th">Hash integridad</text>

  <text x="56" y="296" class="td">20/06/2026 10:32</text>
  <text x="210" y="296" class="td">SOL-000123</text>
  <text x="330" y="296" font-size="13" font-weight="700" fill="#2f9e44">APROBADA</text>
  <text x="470" y="296" class="td">mlopez (Comité)</text>
  <text x="620" y="296" class="td">a1b2c3…</text>
  <line x1="48" y1="310" x2="772" y2="310" stroke="#e9ecef"/>

  <text x="56" y="336" class="td">20/06/2026 09:15</text>
  <text x="210" y="336" class="td">SOL-000119</text>
  <text x="330" y="336" font-size="13" font-weight="700" fill="#e03131">RECHAZADA</text>
  <text x="470" y="336" class="td">jruiz (Cumplim.)</text>
  <text x="620" y="336" class="td">f4e5d6…</text>
  <line x1="48" y1="350" x2="772" y2="350" stroke="#e9ecef"/>

  <text x="56" y="376" class="td">19/06/2026 16:40</text>
  <text x="210" y="376" class="td">SOL-000118</text>
  <text x="330" y="376" font-size="13" font-weight="700" fill="#2f9e44">APROBADA</text>
  <text x="470" y="376" class="td">mlopez (Comité)</text>
  <text x="620" y="376" class="td">998877…</text>
  <line x1="48" y1="390" x2="772" y2="390" stroke="#e9ecef"/>

  <text x="48" y="440" class="muted">Los registros son de solo lectura (append-only) y están sellados con hash de integridad.</text>
</svg>
